<svg xmlns="http://www.w3.org/2000/svg"  viewBox="0 0 100 100" width="200px" height="200px"><path fill="#c7ede6" d="M87.959,55.636c0.3-0.616,0.566-1.264,0.796-1.943c2.633-7.77-1.349-17.078-9.733-19.325c-0.906-11.384-8.906-19.193-17.941-20.526c-10.341-1.525-19.814,5.044-22.966,15.485c-3.799-1.346-7.501-1.182-10.99,0.857c-1.583,0.732-3.031,1.812-4.33,3.233c-1.907,2.086-3.147,4.719-3.652,7.495c-0.748,0.118-1.483,0.236-2.176,0.484c-4.04,1.449-6.589,4.431-7.288,8.923c-0.435,2.797,0.443,5.587,0.933,6.714c1.935,4.455,6.422,6.98,10.981,6.312c0.227-0.033,0.557,0.069,0.752,0.233c0.241,7.12,3.698,13.417,8.884,17.014c8.321,5.772,19.027,3.994,25.781-3.921c2.894,2.96,6.338,4.398,10.384,3.876c4.023-0.519,7.147-2.739,9.426-6.349c1.053,0.283,2.051,0.691,3.083,0.804c4.042,0.442,7.324-1.165,9.732-4.8c0.922-1.391,1.793-3.194,1.793-6.354C91.429,60.593,90.136,57.626,87.959,55.636z"/><path fill="#fdfcef" d="M76.064,49.008c0,0,11.691,0,11.762,0c2.7,0,4.888-2.189,4.888-4.889c0-2.355-1.666-4.321-3.884-4.784c0.026-0.206,0.043-0.415,0.043-0.628c0-2.796-2.267-5.063-5.063-5.063c-1.651,0-3.113,0.794-4.037,2.017c-0.236-3.113-3.017-5.514-6.27-5.116c-2.379,0.291-4.346,2.13-4.784,4.486c-0.14,0.756-0.126,1.489,0.014,2.177c-0.638-0.687-1.546-1.119-2.557-1.119c-1.85,0-3.361,1.441-3.48,3.261c-0.84-0.186-1.754-0.174-2.717,0.188c-1.84,0.691-3.15,2.423-3.227,4.387c-0.109,2.789,2.12,5.085,4.885,5.085c0.21,0,0.948,0,1.118,0h10.151"/><path fill="#472b29" d="M87.827,49.507H76.064c-0.276,0-0.5-0.224-0.5-0.5s0.224-0.5,0.5-0.5h11.762c2.419,0,4.388-1.969,4.388-4.389c0-2.067-1.466-3.873-3.486-4.295c-0.255-0.053-0.426-0.293-0.394-0.552c0.023-0.186,0.039-0.374,0.039-0.565c0-2.517-2.047-4.563-4.563-4.563c-1.439,0-2.765,0.663-3.638,1.818c-0.125,0.166-0.339,0.237-0.54,0.178c-0.199-0.059-0.342-0.234-0.357-0.441c-0.104-1.377-0.779-2.671-1.85-3.549c-1.083-0.888-2.456-1.283-3.861-1.109c-2.166,0.266-3.956,1.943-4.353,4.081c-0.124,0.668-0.12,1.336,0.012,1.986c0.045,0.22-0.062,0.442-0.261,0.544c-0.198,0.105-0.443,0.06-0.595-0.104c-0.575-0.618-1.353-0.959-2.19-0.959c-1.569,0-2.878,1.227-2.981,2.793c-0.01,0.146-0.082,0.28-0.199,0.367c-0.117,0.088-0.268,0.12-0.408,0.089c-0.84-0.184-1.637-0.131-2.433,0.167c-1.669,0.628-2.836,2.211-2.903,3.939c-0.047,1.207,0.387,2.35,1.222,3.218c0.835,0.868,1.959,1.347,3.164,1.347h11.269c0.276,0,0.5,0.224,0.5,0.5s-0.224,0.5-0.5,0.5H61.639c-1.479,0-2.859-0.587-3.884-1.654c-1.025-1.065-1.558-2.468-1.5-3.949c0.083-2.126,1.51-4.069,3.551-4.836c0.8-0.3,1.627-0.399,2.468-0.299c0.376-1.822,1.997-3.182,3.905-3.182c0.684,0,1.354,0.18,1.944,0.51c0-0.385,0.035-0.772,0.107-1.158c0.476-2.562,2.62-4.574,5.215-4.892c1.681-0.205,3.32,0.266,4.616,1.328c1.003,0.823,1.716,1.951,2.038,3.192c1.012-0.915,2.319-1.425,3.713-1.425c3.067,0,5.563,2.496,5.563,5.563c0,0.083-0.002,0.166-0.007,0.248c2.254,0.673,3.848,2.776,3.848,5.164C93.215,47.09,90.798,49.507,87.827,49.507z"/><path fill="#fdfcef" d="M73.231,38.239c-1.808-0.119-3.365,1.13-3.476,2.789c-0.014,0.206-0.005,0.409,0.025,0.606c-0.349-0.394-0.865-0.661-1.458-0.7c-1.085-0.071-2.022,0.645-2.158,1.62c-0.197-0.054-0.403-0.09-0.616-0.104c-1.582-0.104-2.944,0.989-3.042,2.441"/><path fill="#472b29" d="M62.507,45.14c-0.006,0-0.012,0-0.017-0.001c-0.138-0.009-0.242-0.128-0.233-0.266c0.106-1.587,1.593-2.788,3.308-2.674c0.137,0.009,0.273,0.026,0.409,0.053c0.273-0.968,1.25-1.654,2.366-1.567c0.425,0.027,0.824,0.16,1.163,0.382c0.001-0.019,0.002-0.037,0.003-0.057c0.12-1.794,1.786-3.162,3.742-3.021c0.138,0.009,0.242,0.128,0.233,0.266c-0.009,0.138-0.124,0.255-0.266,0.232c-1.657-0.11-3.108,1.037-3.21,2.557c-0.013,0.185-0.005,0.37,0.023,0.552c0.017,0.109-0.041,0.218-0.141,0.265c-0.099,0.047-0.219,0.022-0.293-0.061c-0.322-0.364-0.779-0.583-1.288-0.617c-0.934-0.044-1.775,0.556-1.894,1.404c-0.01,0.071-0.05,0.135-0.11,0.175c-0.061,0.04-0.134,0.052-0.204,0.032c-0.187-0.051-0.377-0.083-0.567-0.097c-1.44-0.09-2.687,0.897-2.775,2.209C62.747,45.039,62.638,45.14,62.507,45.14z"/><path fill="#fdfcef" d="M89.806,39.907c-1.699-0.801-3.664-0.234-4.389,1.267c-0.09,0.186-0.157,0.379-0.201,0.574"/><path fill="#472b29" d="M85.216,41.998c-0.018,0-0.037-0.002-0.056-0.006c-0.134-0.031-0.219-0.165-0.188-0.3c0.049-0.215,0.123-0.426,0.219-0.626c0.784-1.622,2.903-2.241,4.721-1.385c0.125,0.06,0.179,0.208,0.12,0.333c-0.059,0.126-0.209,0.176-0.333,0.12c-1.574-0.743-3.393-0.227-4.058,1.148c-0.08,0.167-0.142,0.342-0.182,0.521C85.433,41.92,85.33,41.998,85.216,41.998z"/><path fill="#fff" d="M70.802 21.395h-10.03c-.276 0-.5-.224-.5-.5s.224-.5.5-.5h10.03c.276 0 .5.224.5.5S71.078 21.395 70.802 21.395zM73.683 21.395h-1.446c-.276 0-.5-.224-.5-.5s.224-.5.5-.5h1.446c.276 0 .5.224.5.5S73.96 21.395 73.683 21.395zM77.738 21.395h-2.545c-.276 0-.5-.224-.5-.5s.224-.5.5-.5h2.545c.276 0 .5.224.5.5S78.014 21.395 77.738 21.395zM75.712 17.666h-9.617c-.276 0-.5-.224-.5-.5s.224-.5.5-.5h9.617c.276 0 .5.224.5.5S75.989 17.666 75.712 17.666zM64.364 17.666h-.58c-.276 0-.5-.224-.5-.5s.224-.5.5-.5h.58c.276 0 .5.224.5.5S64.64 17.666 64.364 17.666zM61.987 17.666h-1.456c-.276 0-.5-.224-.5-.5s.224-.5.5-.5h1.456c.276 0 .5.224.5.5S62.264 17.666 61.987 17.666zM73.149 19.53h-5.027c-.276 0-.5-.224-.5-.5s.224-.5.5-.5h5.027c.276 0 .5.224.5.5S73.425 19.53 73.149 19.53z"/><path fill="#fff" d="M73.149 17.666h-1.257c-.276 0-.5-.224-.5-.5s.224-.5.5-.5h1.257c.276 0 .5.224.5.5S73.425 17.666 73.149 17.666zM66.666 19.53h-1.759c-.276 0-.5-.224-.5-.5s.224-.5.5-.5h1.759c.276 0 .5.224.5.5S66.943 19.53 66.666 19.53z"/><path fill="#c0d078" d="M66.07,72.605H36.357c-3.766,0-6.847-3.081-6.847-6.847V36.045c0-3.766,3.081-6.847,6.847-6.847H66.07c3.766,0,6.847,3.081,6.847,6.847v29.713C72.918,69.524,69.836,72.605,66.07,72.605z"/><path fill="#472b29" d="M66.07,73.305H36.357c-4.162,0-7.547-3.386-7.547-7.547V36.046c0-4.162,3.386-7.548,7.547-7.548H66.07c4.162,0,7.548,3.386,7.548,7.548v29.713C73.618,69.92,70.232,73.305,66.07,73.305z M36.357,29.898c-3.39,0-6.147,2.758-6.147,6.147v29.713c0,3.39,2.757,6.146,6.147,6.146H66.07c3.39,0,6.147-2.757,6.147-6.146V36.046c0-3.39-2.758-6.147-6.147-6.147H36.357z"/><path fill="#fdfcee" d="M64.268,69.505H38.16c-3.052,0-5.549-2.497-5.549-5.549V37.847c0-3.052,2.497-5.549,5.549-5.549h26.109c3.052,0,5.549,2.497,5.549,5.549v26.109C69.817,67.008,67.32,69.505,64.268,69.505z"/><path fill="#472b29" d="M64.163 69.854H38.265c-3.311 0-6.004-2.692-6.004-6.003V37.953c0-3.311 2.693-6.004 6.004-6.004h24.663c.193 0 .35.156.35.35s-.157.35-.35.35H38.265c-2.924 0-5.304 2.38-5.304 5.305v25.898c0 2.924 2.379 5.304 5.304 5.304h25.898c2.925 0 5.304-2.38 5.304-5.304V49.524c0-.193.157-.35.35-.35s.35.156.35.35v14.327C70.167 67.162 67.473 69.854 64.163 69.854zM69.817 47.806c-.193 0-.35-.156-.35-.35v-2.756c0-.193.157-.35.35-.35s.35.156.35.35v2.756C70.167 47.65 70.011 47.806 69.817 47.806zM69.817 43.673c-.193 0-.35-.156-.35-.35v-1.378c0-.193.157-.35.35-.35s.35.156.35.35v1.378C70.167 43.516 70.011 43.673 69.817 43.673z"/><path fill="#fdfcef" d="M39.901,75.373c1.883,0,3.517,0,3.54,0c2.11,0,3.821-1.674,3.821-3.739c0-1.802-1.302-3.305-3.035-3.66c0.02-0.158,0.034-0.317,0.034-0.48c0-2.139-1.772-3.873-3.957-3.873c-1.29,0-2.433,0.607-3.155,1.543c-0.185-2.381-2.358-4.218-4.9-3.913c-1.859,0.223-3.397,1.629-3.739,3.431c-0.11,0.578-0.098,1.139,0.011,1.665c-0.498-0.525-1.208-0.856-1.998-0.856c-1.446,0-2.627,1.102-2.72,2.494c-0.657-0.142-1.371-0.133-2.123,0.143c-1.438,0.528-2.462,1.853-2.522,3.356c-0.085,2.133,1.657,3.889,3.818,3.889c0.164,0,0.741,0,0.874,0h7.934 M33.423,75.373h0.36"/><path fill="#472b29" d="M43.441,75.873h-3.541c-0.276,0-0.5-0.224-0.5-0.5s0.224-0.5,0.5-0.5h3.541c1.831,0,3.32-1.453,3.32-3.239c0-1.524-1.108-2.858-2.635-3.17c-0.256-0.053-0.428-0.293-0.396-0.552c0.017-0.137,0.029-0.276,0.029-0.419c0-1.859-1.551-3.372-3.457-3.372c-1.092,0-2.098,0.491-2.759,1.348c-0.126,0.164-0.34,0.23-0.539,0.174c-0.198-0.06-0.339-0.234-0.355-0.44c-0.079-1.02-0.566-1.944-1.37-2.604c-0.829-0.681-1.886-0.979-2.973-0.853c-1.646,0.197-3.006,1.442-3.307,3.028c-0.094,0.493-0.091,0.988,0.01,1.471c0.045,0.219-0.06,0.441-0.258,0.545c-0.197,0.103-0.44,0.063-0.595-0.1c-0.429-0.451-1.01-0.7-1.636-0.7c-1.169,0-2.145,0.891-2.221,2.027c-0.01,0.146-0.082,0.278-0.198,0.366c-0.116,0.087-0.262,0.12-0.406,0.089c-0.639-0.137-1.243-0.098-1.845,0.125c-1.262,0.463-2.144,1.631-2.195,2.905c-0.035,0.876,0.283,1.709,0.895,2.346c0.635,0.66,1.496,1.024,2.423,1.024h8.808c0.276,0,0.5,0.224,0.5,0.5s-0.224,0.5-0.5,0.5h-8.808c-1.185,0-2.331-0.485-3.144-1.331c-0.803-0.836-1.219-1.929-1.173-3.078c0.067-1.675,1.212-3.204,2.85-3.806c0.609-0.224,1.239-0.305,1.88-0.244c0.344-1.396,1.629-2.424,3.135-2.424c0.493,0,0.977,0.113,1.414,0.323c0.009-0.242,0.037-0.484,0.083-0.727c0.382-2.009,2.097-3.585,4.17-3.833c1.364-0.168,2.685,0.218,3.726,1.071c0.748,0.613,1.279,1.409,1.547,2.302c0.791-0.647,1.785-1.006,2.842-1.006c2.458,0,4.457,1.961,4.457,4.372c0,0.034,0,0.068-0.001,0.103c1.764,0.555,3.003,2.188,3.003,4.038C47.762,73.971,45.824,75.873,43.441,75.873z M33.783,75.873h-0.359c-0.276,0-0.5-0.224-0.5-0.5s0.224-0.5,0.5-0.5h0.359c0.276,0,0.5,0.224,0.5,0.5S34.059,75.873,33.783,75.873z"/><path fill="#472b29" d="M41.733 70.07c-.018 0-.037-.002-.055-.006-.135-.031-.219-.165-.188-.3.038-.166.094-.327.169-.479.605-1.225 2.273-1.678 3.722-1.006.125.058.18.206.122.331-.059.126-.206.18-.332.122-1.204-.556-2.578-.209-3.063.773-.058.117-.101.241-.13.369C41.951 69.991 41.848 70.07 41.733 70.07zM36.575 75.873h-1.107c-.276 0-.5-.224-.5-.5s.224-.5.5-.5h1.107c.276 0 .5.224.5.5S36.851 75.873 36.575 75.873z"/><path fill="#fff" d="M17.889 50.679H7.859c-.276 0-.5-.224-.5-.5s.224-.5.5-.5h10.03c.276 0 .5.224.5.5S18.165 50.679 17.889 50.679zM20.77 50.679h-1.446c-.276 0-.5-.224-.5-.5s.224-.5.5-.5h1.446c.276 0 .5.224.5.5S21.047 50.679 20.77 50.679zM24.825 50.679h-2.546c-.276 0-.5-.224-.5-.5s.224-.5.5-.5h2.546c.276 0 .5.224.5.5S25.101 50.679 24.825 50.679zM24.825 52.545h-9.616c-.276 0-.5-.224-.5-.5s.224-.5.5-.5h9.616c.276 0 .5.224.5.5S25.101 52.545 24.825 52.545zM13.477 52.545h-.58c-.276 0-.5-.224-.5-.5s.224-.5.5-.5h.58c.276 0 .5.224.5.5S13.753 52.545 13.477 52.545zM11.1 52.545H9.644c-.276 0-.5-.224-.5-.5s.224-.5.5-.5H11.1c.276 0 .5.224.5.5S11.377 52.545 11.1 52.545zM20.236 48.815h-5.027c-.276 0-.5-.224-.5-.5s.224-.5.5-.5h5.027c.276 0 .5.224.5.5S20.513 48.815 20.236 48.815zM20.236 46.95h-1.257c-.276 0-.5-.224-.5-.5s.224-.5.5-.5h1.257c.276 0 .5.224.5.5S20.513 46.95 20.236 46.95zM16.967 54.409h-1.758c-.276 0-.5-.224-.5-.5s.224-.5.5-.5h1.758c.276 0 .5.224.5.5S17.244 54.409 16.967 54.409z"/><path fill="#472b29" d="M47.544,54.171c-0.128,0-0.256-0.049-0.354-0.146c-0.195-0.195-0.195-0.512,0-0.707l1.89-1.891c0.195-0.195,0.512-0.195,0.707,0s0.195,0.512,0,0.707l-1.89,1.891C47.8,54.122,47.672,54.171,47.544,54.171z"/><path fill="#88ae45" d="M39.442,61.772L39.442,61.772c-0.743-0.743-0.743-1.958,0-2.701l5.401-5.401c0.743-0.743,1.958-0.743,2.701,0h0c0.743,0.743,0.743,1.958,0,2.701l-5.401,5.401C41.4,62.514,40.185,62.514,39.442,61.772z"/><path fill="#472b29" d="M40.792,62.73c-0.591,0-1.183-0.225-1.633-0.675l0,0c-0.9-0.901-0.9-2.366,0-3.268l5.401-5.4c0.869-0.869,2.396-0.869,3.266,0c0.435,0.435,0.674,1.015,0.674,1.633s-0.239,1.198-0.674,1.634l-5.401,5.401C41.975,62.505,41.384,62.73,40.792,62.73z M39.725,61.489c0.589,0.59,1.546,0.59,2.135,0l5.401-5.401c0.284-0.283,0.44-0.663,0.44-1.067s-0.156-0.783-0.44-1.066c-0.568-0.569-1.568-0.569-2.135,0l-5.401,5.4C39.137,59.942,39.137,60.9,39.725,61.489L39.725,61.489z"/><path fill="#d1dc82" d="M47.343,53.864c-0.627-0.627-1.611-0.668-2.188-0.091l-0.105,0.105l0.228,0.228l2.051,2.051l0.105-0.105C48.011,55.475,47.97,54.49,47.343,53.864z"/><path fill="#472b29" d="M47.333,56.805c-0.096,0-0.192-0.037-0.265-0.109l-2.43-2.432c-0.146-0.146-0.146-0.384,0-0.53s0.384-0.147,0.53,0.001l2.43,2.43c0.146,0.146,0.146,0.385,0,0.531C47.525,56.769,47.43,56.805,47.333,56.805z"/><path fill="#77cbd2" d="M55.393 39.138A6.683 6.683 0 1 0 55.393 52.504A6.683 6.683 0 1 0 55.393 39.138Z" opacity=".74" transform="rotate(-45.001 55.392 45.822)"/><path fill="#e1e0d8" d="M61.316,39.897c-3.281-3.281-8.601-3.281-11.882,0c-3.281,3.281-3.281,8.601,0,11.882c3.281,3.281,8.601,3.281,11.882,0C64.598,48.499,64.598,43.179,61.316,39.897z"/><path fill="#472b29" d="M55.375 54.636c-2.254 0-4.508-.857-6.224-2.573-3.432-3.433-3.432-9.017 0-12.449 3.432-3.431 9.017-3.432 12.448 0 3.432 3.433 3.432 9.017 0 12.449C59.883 53.779 57.629 54.636 55.375 54.636zM55.375 37.84c-2.049 0-4.098.78-5.658 2.341-3.12 3.12-3.12 8.196 0 11.316 3.121 3.122 8.198 3.121 11.317 0 3.12-3.12 3.12-8.196 0-11.316C59.473 38.62 57.424 37.84 55.375 37.84zM40.37 62.429c-.053 0-.102-.034-.119-.087l-.935-2.905c-.021-.065.015-.136.081-.157.065-.021.136.016.157.081l.935 2.905c.021.065-.015.136-.081.157C40.395 62.427 40.383 62.429 40.37 62.429zM40.962 62.227c-.054 0-.104-.035-.12-.089l-1.06-3.56c-.02-.066.018-.137.084-.156.067-.015.136.019.155.084l1.06 3.56c.02.066-.018.137-.084.156C40.986 62.225 40.974 62.227 40.962 62.227zM41.319 60.976c-.054 0-.104-.035-.12-.089l-.887-2.979c-.02-.066.018-.137.084-.156.067-.015.136.019.155.084l.887 2.979c.02.066-.018.137-.084.156C41.343 60.974 41.331 60.976 41.319 60.976zM41.681 59.671c-.054 0-.104-.035-.12-.089l-.625-2.101c-.02-.066.018-.137.084-.156.066-.016.136.02.155.084l.625 2.101c.02.066-.018.136-.084.156C41.704 59.669 41.692 59.671 41.681 59.671z"/><path fill="#a8dbdb" d="M55.375 39.156A6.683 6.683 0 1 0 55.375 52.522A6.683 6.683 0 1 0 55.375 39.156Z" transform="rotate(-45.001 55.375 45.84)"/><path fill="#472b29" d="M55.375,52.847c-1.873,0-3.632-0.729-4.956-2.054c-1.323-1.323-2.052-3.083-2.052-4.955s0.729-3.632,2.052-4.955c1.324-1.324,3.083-2.054,4.956-2.054c1.872,0,3.632,0.729,4.956,2.054c1.324,1.323,2.053,3.083,2.053,4.955s-0.729,3.632-2.053,4.955l0,0l0,0C59.007,52.118,57.247,52.847,55.375,52.847z M55.375,39.48c-1.699,0-3.295,0.661-4.496,1.862c-1.201,1.201-1.862,2.798-1.862,4.496s0.661,3.295,1.862,4.496c1.201,1.201,2.797,1.862,4.496,1.862c1.698,0,3.295-0.661,4.496-1.862l0,0c1.201-1.201,1.863-2.798,1.863-4.496s-0.662-3.295-1.863-4.496C58.67,40.141,57.074,39.48,55.375,39.48z"/></svg>
